<mxfile host="app.diagrams.net" agent="Mozilla/5.0 (Macintosh; Intel Mac OS X 10_15_7) AppleWebKit/537.36 (KHTML, like Gecko) Chrome/132.0.0.0 Safari/537.36" version="26.0.7">
  <diagram name="Page-1" id="LQerbf2AkNzPaHdYyRd_">
    <mxGraphModel dx="1393" dy="832" grid="1" gridSize="10" guides="1" tooltips="1" connect="1" arrows="1" fold="1" page="1" pageScale="1" pageWidth="1200" pageHeight="1600" math="0" shadow="0">
      <root>
        <mxCell id="0" />
        <mxCell id="1" parent="0" />
        <mxCell id="a9erdR6Z5kSXFyaDxp-H-4" value="" style="edgeStyle=orthogonalEdgeStyle;rounded=0;orthogonalLoop=1;jettySize=auto;html=1;entryX=0.5;entryY=0;entryDx=0;entryDy=0;shadow=1;labelBackgroundColor=none;fontColor=default;" edge="1" parent="1" source="nGKovSSMsudREK6v7h-v-7" target="nGKovSSMsudREK6v7h-v-17">
          <mxGeometry relative="1" as="geometry">
            <mxPoint x="550" y="190" as="targetPoint" />
            <Array as="points">
              <mxPoint x="470" y="200" />
            </Array>
          </mxGeometry>
        </mxCell>
        <mxCell id="nGKovSSMsudREK6v7h-v-7" value="User query" style="rounded=1;whiteSpace=wrap;html=1;shadow=1;labelBackgroundColor=none;glass=0;fillColor=#b0e3e6;strokeColor=#0e8088;" parent="1" vertex="1">
          <mxGeometry x="390" y="140" width="160" height="40" as="geometry" />
        </mxCell>
        <mxCell id="a9erdR6Z5kSXFyaDxp-H-12" style="edgeStyle=orthogonalEdgeStyle;rounded=0;orthogonalLoop=1;jettySize=auto;html=1;exitX=0;exitY=1;exitDx=0;exitDy=0;entryX=1;entryY=0.5;entryDx=0;entryDy=0;" edge="1" parent="1" source="nGKovSSMsudREK6v7h-v-17" target="nGKovSSMsudREK6v7h-v-45">
          <mxGeometry relative="1" as="geometry" />
        </mxCell>
        <mxCell id="nGKovSSMsudREK6v7h-v-17" value="Web searches are&lt;div&gt;performed&lt;/div&gt;" style="rounded=0;whiteSpace=wrap;html=1;glass=0;shadow=1;labelBackgroundColor=none;" parent="1" vertex="1">
          <mxGeometry x="390" y="200" width="160" height="40" as="geometry" />
        </mxCell>
        <mxCell id="a9erdR6Z5kSXFyaDxp-H-6" value="" style="edgeStyle=orthogonalEdgeStyle;rounded=0;orthogonalLoop=1;jettySize=auto;html=1;shadow=1;labelBackgroundColor=none;fontColor=default;" edge="1" parent="1" source="nGKovSSMsudREK6v7h-v-19" target="nGKovSSMsudREK6v7h-v-30">
          <mxGeometry relative="1" as="geometry" />
        </mxCell>
        <mxCell id="nGKovSSMsudREK6v7h-v-19" value="Using Brave Search API" style="rounded=0;whiteSpace=wrap;html=1;glass=0;shadow=1;labelBackgroundColor=none;fillColor=#fad9d5;strokeColor=#ae4132;" parent="1" vertex="1">
          <mxGeometry x="390" y="240" width="160" height="40" as="geometry" />
        </mxCell>
        <mxCell id="a9erdR6Z5kSXFyaDxp-H-7" style="edgeStyle=orthogonalEdgeStyle;rounded=0;orthogonalLoop=1;jettySize=auto;html=1;exitX=0;exitY=0.5;exitDx=0;exitDy=0;entryX=1;entryY=0.5;entryDx=0;entryDy=0;shadow=1;labelBackgroundColor=none;fontColor=default;" edge="1" parent="1" source="nGKovSSMsudREK6v7h-v-30" target="nGKovSSMsudREK6v7h-v-43">
          <mxGeometry relative="1" as="geometry" />
        </mxCell>
        <mxCell id="nGKovSSMsudREK6v7h-v-30" value="Processes user input queries in a session and provides answers to the original query." style="rounded=0;whiteSpace=wrap;html=1;glass=0;shadow=1;labelBackgroundColor=none;" parent="1" vertex="1">
          <mxGeometry x="390" y="340" width="160" height="80" as="geometry" />
        </mxCell>
        <mxCell id="a9erdR6Z5kSXFyaDxp-H-8" value="" style="edgeStyle=orthogonalEdgeStyle;rounded=0;orthogonalLoop=1;jettySize=auto;html=1;shadow=1;labelBackgroundColor=none;fontColor=default;" edge="1" parent="1" source="nGKovSSMsudREK6v7h-v-34" target="nGKovSSMsudREK6v7h-v-41">
          <mxGeometry relative="1" as="geometry" />
        </mxCell>
        <mxCell id="nGKovSSMsudREK6v7h-v-34" value="Using gpt-3.5-turbo-0125" style="rounded=0;whiteSpace=wrap;html=1;glass=0;shadow=1;labelBackgroundColor=none;fillColor=#bac8d3;strokeColor=#23445d;" parent="1" vertex="1">
          <mxGeometry x="390" y="420" width="160" height="40" as="geometry" />
        </mxCell>
        <mxCell id="nGKovSSMsudREK6v7h-v-41" value="Final response is streamed onto frontend" style="rounded=0;whiteSpace=wrap;html=1;glass=0;shadow=1;labelBackgroundColor=none;" parent="1" vertex="1">
          <mxGeometry x="230" y="520" width="160" height="40" as="geometry" />
        </mxCell>
        <mxCell id="nGKovSSMsudREK6v7h-v-43" value="Web search and read results are streamed onto frontend" style="rounded=0;whiteSpace=wrap;html=1;glass=0;shadow=1;labelBackgroundColor=none;" parent="1" vertex="1">
          <mxGeometry x="180" y="350" width="160" height="60" as="geometry" />
        </mxCell>
        <mxCell id="nGKovSSMsudREK6v7h-v-45" value="web search results are displayed in frontend." style="rounded=0;whiteSpace=wrap;html=1;glass=0;shadow=1;labelBackgroundColor=none;" parent="1" vertex="1">
          <mxGeometry x="180" y="230" width="160" height="60" as="geometry" />
        </mxCell>
        <mxCell id="a9erdR6Z5kSXFyaDxp-H-22" value="" style="edgeStyle=orthogonalEdgeStyle;rounded=0;orthogonalLoop=1;jettySize=auto;html=1;" edge="1" parent="1" source="nGKovSSMsudREK6v7h-v-54" target="nGKovSSMsudREK6v7h-v-7">
          <mxGeometry relative="1" as="geometry" />
        </mxCell>
        <mxCell id="nGKovSSMsudREK6v7h-v-54" value="&lt;b&gt;Server-side&lt;/b&gt;&lt;div&gt;Next.js, OpenAI, Brave Search API&lt;br&gt;&lt;br&gt;&lt;b&gt;Frontend&lt;br&gt;&lt;/b&gt;Next.js, TailwindCSS&lt;b&gt;&lt;/b&gt;&lt;/div&gt;" style="shape=process;whiteSpace=wrap;html=1;backgroundOutline=1;rounded=1;opacity=90;shadow=1;labelBackgroundColor=none;arcSize=39;" parent="1" vertex="1">
          <mxGeometry x="275" y="20" width="390" height="90" as="geometry" />
        </mxCell>
        <mxCell id="a9erdR6Z5kSXFyaDxp-H-23" value="" style="curved=1;endArrow=classic;html=1;rounded=0;entryX=0.5;entryY=0;entryDx=0;entryDy=0;" edge="1" parent="1" target="nGKovSSMsudREK6v7h-v-41">
          <mxGeometry width="50" height="50" relative="1" as="geometry">
            <mxPoint x="260" y="410" as="sourcePoint" />
            <mxPoint x="310" y="440" as="targetPoint" />
            <Array as="points">
              <mxPoint x="270" y="480" />
              <mxPoint x="220" y="430" />
              <mxPoint x="280" y="430" />
            </Array>
          </mxGeometry>
        </mxCell>
        <mxCell id="a9erdR6Z5kSXFyaDxp-H-25" value="&lt;h1 style=&quot;margin-top: 0px;&quot;&gt;final resp&lt;/h1&gt;&lt;p&gt;combination of web search and gpt detailed response&lt;/p&gt;" style="text;html=1;whiteSpace=wrap;overflow=hidden;rounded=0;" vertex="1" parent="1">
          <mxGeometry x="420" y="520" width="180" height="120" as="geometry" />
        </mxCell>
        <mxCell id="a9erdR6Z5kSXFyaDxp-H-26" value="V1.0.0" style="text;html=1;align=center;verticalAlign=middle;whiteSpace=wrap;rounded=1;fontFamily=Lucida Console;labelBackgroundColor=none;labelBorderColor=none;textShadow=1;fillColor=#ffe6cc;strokeColor=#d79b00;gradientColor=none;shadow=1;" vertex="1" parent="1">
          <mxGeometry x="630" y="310" width="60" height="30" as="geometry" />
        </mxCell>
      </root>
    </mxGraphModel>
  </diagram>
</mxfile>
